<mxfile host="Electron" modified="2024-02-19T11:34:58.282Z" agent="Mozilla/5.0 (Windows NT 10.0; Win64; x64) AppleWebKit/537.36 (KHTML, like Gecko) draw.io/22.1.11 Chrome/114.0.5735.289 Electron/25.9.8 Safari/537.36" etag="euBoca64iw0u0m-g7T7g" version="22.1.11" type="device">
  <diagram name="Página-1" id="SKeT9bsxYObJkZW77-m9">
    <mxGraphModel dx="1235" dy="740" grid="1" gridSize="10" guides="1" tooltips="1" connect="1" arrows="1" fold="1" page="1" pageScale="1" pageWidth="1169" pageHeight="827" math="0" shadow="0">
      <root>
        <mxCell id="0" />
        <mxCell id="1" parent="0" />
        <mxCell id="ifHOgkLfsga2QueAce6r-5" value="CCuenta" style="swimlane;fontStyle=1;align=center;verticalAlign=top;childLayout=stackLayout;horizontal=1;startSize=26;horizontalStack=0;resizeParent=1;resizeParentMax=0;resizeLast=0;collapsible=1;marginBottom=0;whiteSpace=wrap;html=1;labelBackgroundColor=none;fillColor=#BC6C25;strokeColor=#DDA15E;fontColor=#FEFAE0;" vertex="1" parent="1">
          <mxGeometry x="60" y="174" width="350" height="230" as="geometry" />
        </mxCell>
        <mxCell id="ifHOgkLfsga2QueAce6r-6" value="- nombre: String" style="text;strokeColor=none;fillColor=none;align=left;verticalAlign=top;spacingLeft=4;spacingRight=4;overflow=hidden;rotatable=0;points=[[0,0.5],[1,0.5]];portConstraint=eastwest;whiteSpace=wrap;html=1;labelBackgroundColor=none;fontColor=#FEFAE0;" vertex="1" parent="ifHOgkLfsga2QueAce6r-5">
          <mxGeometry y="26" width="350" height="26" as="geometry" />
        </mxCell>
        <mxCell id="ifHOgkLfsga2QueAce6r-10" value="- cuenta: String" style="text;strokeColor=none;fillColor=none;align=left;verticalAlign=top;spacingLeft=4;spacingRight=4;overflow=hidden;rotatable=0;points=[[0,0.5],[1,0.5]];portConstraint=eastwest;whiteSpace=wrap;html=1;labelBackgroundColor=none;fontColor=#FEFAE0;" vertex="1" parent="ifHOgkLfsga2QueAce6r-5">
          <mxGeometry y="52" width="350" height="26" as="geometry" />
        </mxCell>
        <mxCell id="ifHOgkLfsga2QueAce6r-9" value="- saldo: double" style="text;strokeColor=none;fillColor=none;align=left;verticalAlign=top;spacingLeft=4;spacingRight=4;overflow=hidden;rotatable=0;points=[[0,0.5],[1,0.5]];portConstraint=eastwest;whiteSpace=wrap;html=1;labelBackgroundColor=none;fontColor=#FEFAE0;" vertex="1" parent="ifHOgkLfsga2QueAce6r-5">
          <mxGeometry y="78" width="350" height="26" as="geometry" />
        </mxCell>
        <mxCell id="ifHOgkLfsga2QueAce6r-7" value="" style="line;strokeWidth=1;fillColor=none;align=left;verticalAlign=middle;spacingTop=-1;spacingLeft=3;spacingRight=3;rotatable=0;labelPosition=right;points=[];portConstraint=eastwest;strokeColor=#DDA15E;labelBackgroundColor=none;fontColor=#FEFAE0;" vertex="1" parent="ifHOgkLfsga2QueAce6r-5">
          <mxGeometry y="104" width="350" height="8" as="geometry" />
        </mxCell>
        <mxCell id="ifHOgkLfsga2QueAce6r-8" value="+ CCuenta(String, String, double)&lt;br&gt;+ asignarNombre(String)&lt;br&gt;+ obtenerNombre(): String&lt;br&gt;+ saldo(): double&lt;br&gt;+ ingresar(double): String&lt;br&gt;+ retirar(double): String&lt;br&gt;+ obtenerCuenta(): String" style="text;strokeColor=none;fillColor=none;align=left;verticalAlign=top;spacingLeft=4;spacingRight=4;overflow=hidden;rotatable=0;points=[[0,0.5],[1,0.5]];portConstraint=eastwest;whiteSpace=wrap;html=1;labelBackgroundColor=none;fontColor=#FEFAE0;" vertex="1" parent="ifHOgkLfsga2QueAce6r-5">
          <mxGeometry y="112" width="350" height="118" as="geometry" />
        </mxCell>
        <mxCell id="ifHOgkLfsga2QueAce6r-11" value="cuentaCorriente: CCuenta" style="swimlane;fontStyle=0;childLayout=stackLayout;horizontal=1;startSize=26;fillColor=none;horizontalStack=0;resizeParent=1;resizeParentMax=0;resizeLast=0;collapsible=1;marginBottom=0;whiteSpace=wrap;html=1;strokeColor=#DDA15E;fontColor=#FEFAE0;" vertex="1" parent="1">
          <mxGeometry x="590" y="390" width="250" height="104" as="geometry" />
        </mxCell>
        <mxCell id="ifHOgkLfsga2QueAce6r-12" value="- nombre = David" style="text;strokeColor=none;fillColor=none;align=left;verticalAlign=top;spacingLeft=4;spacingRight=4;overflow=hidden;rotatable=0;points=[[0,0.5],[1,0.5]];portConstraint=eastwest;whiteSpace=wrap;html=1;fontColor=#FEFAE0;" vertex="1" parent="ifHOgkLfsga2QueAce6r-11">
          <mxGeometry y="26" width="250" height="26" as="geometry" />
        </mxCell>
        <mxCell id="ifHOgkLfsga2QueAce6r-13" value="- cuenta = personal" style="text;strokeColor=none;fillColor=none;align=left;verticalAlign=top;spacingLeft=4;spacingRight=4;overflow=hidden;rotatable=0;points=[[0,0.5],[1,0.5]];portConstraint=eastwest;whiteSpace=wrap;html=1;fontColor=#FEFAE0;" vertex="1" parent="ifHOgkLfsga2QueAce6r-11">
          <mxGeometry y="52" width="250" height="26" as="geometry" />
        </mxCell>
        <mxCell id="ifHOgkLfsga2QueAce6r-14" value="- saldo = 10000000000000" style="text;strokeColor=none;fillColor=none;align=left;verticalAlign=top;spacingLeft=4;spacingRight=4;overflow=hidden;rotatable=0;points=[[0,0.5],[1,0.5]];portConstraint=eastwest;whiteSpace=wrap;html=1;fontColor=#FEFAE0;" vertex="1" parent="ifHOgkLfsga2QueAce6r-11">
          <mxGeometry y="78" width="250" height="26" as="geometry" />
        </mxCell>
        <mxCell id="ifHOgkLfsga2QueAce6r-18" value="Cliente" style="swimlane;fontStyle=1;align=center;verticalAlign=top;childLayout=stackLayout;horizontal=1;startSize=26;horizontalStack=0;resizeParent=1;resizeParentMax=0;resizeLast=0;collapsible=1;marginBottom=0;whiteSpace=wrap;html=1;strokeColor=#DDA15E;fontColor=#FEFAE0;fillColor=#BC6C25;" vertex="1" parent="1">
          <mxGeometry x="610" y="174" width="230" height="138" as="geometry" />
        </mxCell>
        <mxCell id="ifHOgkLfsga2QueAce6r-19" value="- nombre: String" style="text;strokeColor=none;fillColor=none;align=left;verticalAlign=top;spacingLeft=4;spacingRight=4;overflow=hidden;rotatable=0;points=[[0,0.5],[1,0.5]];portConstraint=eastwest;whiteSpace=wrap;html=1;fontColor=#FEFAE0;" vertex="1" parent="ifHOgkLfsga2QueAce6r-18">
          <mxGeometry y="26" width="230" height="26" as="geometry" />
        </mxCell>
        <mxCell id="ifHOgkLfsga2QueAce6r-23" value="- apellidos: String" style="text;strokeColor=none;fillColor=none;align=left;verticalAlign=top;spacingLeft=4;spacingRight=4;overflow=hidden;rotatable=0;points=[[0,0.5],[1,0.5]];portConstraint=eastwest;whiteSpace=wrap;html=1;fontColor=#FEFAE0;" vertex="1" parent="ifHOgkLfsga2QueAce6r-18">
          <mxGeometry y="52" width="230" height="26" as="geometry" />
        </mxCell>
        <mxCell id="ifHOgkLfsga2QueAce6r-22" value="- correo: String" style="text;strokeColor=none;fillColor=none;align=left;verticalAlign=top;spacingLeft=4;spacingRight=4;overflow=hidden;rotatable=0;points=[[0,0.5],[1,0.5]];portConstraint=eastwest;whiteSpace=wrap;html=1;fontColor=#FEFAE0;" vertex="1" parent="ifHOgkLfsga2QueAce6r-18">
          <mxGeometry y="78" width="230" height="26" as="geometry" />
        </mxCell>
        <mxCell id="ifHOgkLfsga2QueAce6r-20" value="" style="line;strokeWidth=1;fillColor=none;align=left;verticalAlign=middle;spacingTop=-1;spacingLeft=3;spacingRight=3;rotatable=0;labelPosition=right;points=[];portConstraint=eastwest;strokeColor=inherit;fontColor=#FEFAE0;" vertex="1" parent="ifHOgkLfsga2QueAce6r-18">
          <mxGeometry y="104" width="230" height="8" as="geometry" />
        </mxCell>
        <mxCell id="ifHOgkLfsga2QueAce6r-21" value="+ method(type): type" style="text;strokeColor=none;fillColor=none;align=left;verticalAlign=top;spacingLeft=4;spacingRight=4;overflow=hidden;rotatable=0;points=[[0,0.5],[1,0.5]];portConstraint=eastwest;whiteSpace=wrap;html=1;fontColor=#FEFAE0;" vertex="1" parent="ifHOgkLfsga2QueAce6r-18">
          <mxGeometry y="112" width="230" height="26" as="geometry" />
        </mxCell>
        <mxCell id="ifHOgkLfsga2QueAce6r-25" value="pertenece a" style="endArrow=block;endSize=16;endFill=0;html=1;rounded=0;strokeColor=#DDA15E;fontColor=#FEFAE0;fillColor=#BC6C25;exitX=1;exitY=0.064;exitDx=0;exitDy=0;entryX=-0.003;entryY=0.096;entryDx=0;entryDy=0;entryPerimeter=0;exitPerimeter=0;" edge="1" parent="1" source="ifHOgkLfsga2QueAce6r-5" target="ifHOgkLfsga2QueAce6r-18">
          <mxGeometry width="160" relative="1" as="geometry">
            <mxPoint x="430" y="440" as="sourcePoint" />
            <mxPoint x="590" y="440" as="targetPoint" />
          </mxGeometry>
        </mxCell>
        <mxCell id="ifHOgkLfsga2QueAce6r-46" value="0..n" style="edgeLabel;html=1;align=center;verticalAlign=middle;resizable=0;points=[];fontColor=#FEFAE0;" vertex="1" connectable="0" parent="ifHOgkLfsga2QueAce6r-25">
          <mxGeometry x="-0.8473" y="2" relative="1" as="geometry">
            <mxPoint as="offset" />
          </mxGeometry>
        </mxCell>
        <mxCell id="ifHOgkLfsga2QueAce6r-26" value="TarjetaCrédito" style="swimlane;fontStyle=1;align=center;verticalAlign=top;childLayout=stackLayout;horizontal=1;startSize=26;horizontalStack=0;resizeParent=1;resizeParentMax=0;resizeLast=0;collapsible=1;marginBottom=0;whiteSpace=wrap;html=1;strokeColor=#DDA15E;fontColor=#FEFAE0;fillColor=#BC6C25;" vertex="1" parent="1">
          <mxGeometry x="1050" y="60" width="230" height="138" as="geometry" />
        </mxCell>
        <mxCell id="ifHOgkLfsga2QueAce6r-27" value="- saldo: double" style="text;strokeColor=none;fillColor=none;align=left;verticalAlign=top;spacingLeft=4;spacingRight=4;overflow=hidden;rotatable=0;points=[[0,0.5],[1,0.5]];portConstraint=eastwest;whiteSpace=wrap;html=1;fontColor=#FEFAE0;" vertex="1" parent="ifHOgkLfsga2QueAce6r-26">
          <mxGeometry y="26" width="230" height="26" as="geometry" />
        </mxCell>
        <mxCell id="ifHOgkLfsga2QueAce6r-28" value="- límite: double" style="text;strokeColor=none;fillColor=none;align=left;verticalAlign=top;spacingLeft=4;spacingRight=4;overflow=hidden;rotatable=0;points=[[0,0.5],[1,0.5]];portConstraint=eastwest;whiteSpace=wrap;html=1;fontColor=#FEFAE0;" vertex="1" parent="ifHOgkLfsga2QueAce6r-26">
          <mxGeometry y="52" width="230" height="26" as="geometry" />
        </mxCell>
        <mxCell id="ifHOgkLfsga2QueAce6r-30" value="" style="line;strokeWidth=1;fillColor=none;align=left;verticalAlign=middle;spacingTop=-1;spacingLeft=3;spacingRight=3;rotatable=0;labelPosition=right;points=[];portConstraint=eastwest;strokeColor=inherit;fontColor=#FEFAE0;" vertex="1" parent="ifHOgkLfsga2QueAce6r-26">
          <mxGeometry y="78" width="230" height="8" as="geometry" />
        </mxCell>
        <mxCell id="ifHOgkLfsga2QueAce6r-31" value="+ liquidar:" style="text;strokeColor=none;fillColor=none;align=left;verticalAlign=top;spacingLeft=4;spacingRight=4;overflow=hidden;rotatable=0;points=[[0,0.5],[1,0.5]];portConstraint=eastwest;whiteSpace=wrap;html=1;fontColor=#FEFAE0;" vertex="1" parent="ifHOgkLfsga2QueAce6r-26">
          <mxGeometry y="86" width="230" height="26" as="geometry" />
        </mxCell>
        <mxCell id="ifHOgkLfsga2QueAce6r-38" value="+ toString" style="text;strokeColor=none;fillColor=none;align=left;verticalAlign=top;spacingLeft=4;spacingRight=4;overflow=hidden;rotatable=0;points=[[0,0.5],[1,0.5]];portConstraint=eastwest;whiteSpace=wrap;html=1;fontColor=#FEFAE0;" vertex="1" parent="ifHOgkLfsga2QueAce6r-26">
          <mxGeometry y="112" width="230" height="26" as="geometry" />
        </mxCell>
        <mxCell id="ifHOgkLfsga2QueAce6r-32" value="TarjetaDébito" style="swimlane;fontStyle=1;align=center;verticalAlign=top;childLayout=stackLayout;horizontal=1;startSize=26;horizontalStack=0;resizeParent=1;resizeParentMax=0;resizeLast=0;collapsible=1;marginBottom=0;whiteSpace=wrap;html=1;strokeColor=#DDA15E;fontColor=#FEFAE0;fillColor=#BC6C25;" vertex="1" parent="1">
          <mxGeometry x="1050" y="278" width="230" height="112" as="geometry" />
        </mxCell>
        <mxCell id="ifHOgkLfsga2QueAce6r-33" value="- saldo: double" style="text;strokeColor=none;fillColor=none;align=left;verticalAlign=top;spacingLeft=4;spacingRight=4;overflow=hidden;rotatable=0;points=[[0,0.5],[1,0.5]];portConstraint=eastwest;whiteSpace=wrap;html=1;fontColor=#FEFAE0;" vertex="1" parent="ifHOgkLfsga2QueAce6r-32">
          <mxGeometry y="26" width="230" height="26" as="geometry" />
        </mxCell>
        <mxCell id="ifHOgkLfsga2QueAce6r-36" value="" style="line;strokeWidth=1;fillColor=none;align=left;verticalAlign=middle;spacingTop=-1;spacingLeft=3;spacingRight=3;rotatable=0;labelPosition=right;points=[];portConstraint=eastwest;strokeColor=inherit;fontColor=#FEFAE0;" vertex="1" parent="ifHOgkLfsga2QueAce6r-32">
          <mxGeometry y="52" width="230" height="8" as="geometry" />
        </mxCell>
        <mxCell id="ifHOgkLfsga2QueAce6r-37" value="+ recargar: double" style="text;strokeColor=none;fillColor=none;align=left;verticalAlign=top;spacingLeft=4;spacingRight=4;overflow=hidden;rotatable=0;points=[[0,0.5],[1,0.5]];portConstraint=eastwest;whiteSpace=wrap;html=1;fontColor=#FEFAE0;" vertex="1" parent="ifHOgkLfsga2QueAce6r-32">
          <mxGeometry y="60" width="230" height="26" as="geometry" />
        </mxCell>
        <mxCell id="ifHOgkLfsga2QueAce6r-39" value="+ toString: String" style="text;strokeColor=none;fillColor=none;align=left;verticalAlign=top;spacingLeft=4;spacingRight=4;overflow=hidden;rotatable=0;points=[[0,0.5],[1,0.5]];portConstraint=eastwest;whiteSpace=wrap;html=1;fontColor=#FEFAE0;" vertex="1" parent="ifHOgkLfsga2QueAce6r-32">
          <mxGeometry y="86" width="230" height="26" as="geometry" />
        </mxCell>
        <mxCell id="ifHOgkLfsga2QueAce6r-40" value="" style="endArrow=classic;endFill=1;endSize=12;html=1;rounded=0;strokeColor=#DDA15E;fontColor=#FEFAE0;fillColor=#BC6C25;entryX=1;entryY=0.5;entryDx=0;entryDy=0;" edge="1" parent="1" target="ifHOgkLfsga2QueAce6r-23">
          <mxGeometry width="160" relative="1" as="geometry">
            <mxPoint x="940" y="240" as="sourcePoint" />
            <mxPoint x="890" y="440" as="targetPoint" />
            <Array as="points">
              <mxPoint x="900" y="240" />
            </Array>
          </mxGeometry>
        </mxCell>
        <mxCell id="ifHOgkLfsga2QueAce6r-41" value="" style="endArrow=none;html=1;rounded=0;strokeColor=#DDA15E;fontColor=#FEFAE0;fillColor=#BC6C25;" edge="1" parent="1">
          <mxGeometry width="50" height="50" relative="1" as="geometry">
            <mxPoint x="940" y="340" as="sourcePoint" />
            <mxPoint x="940" y="130" as="targetPoint" />
          </mxGeometry>
        </mxCell>
        <mxCell id="ifHOgkLfsga2QueAce6r-42" value="" style="endArrow=none;html=1;rounded=0;strokeColor=#DDA15E;fontColor=#FEFAE0;fillColor=#BC6C25;" edge="1" parent="1">
          <mxGeometry width="50" height="50" relative="1" as="geometry">
            <mxPoint x="1050" y="130" as="sourcePoint" />
            <mxPoint x="940" y="130" as="targetPoint" />
          </mxGeometry>
        </mxCell>
        <mxCell id="ifHOgkLfsga2QueAce6r-43" value="" style="endArrow=none;html=1;rounded=0;strokeColor=#DDA15E;fontColor=#FEFAE0;fillColor=#BC6C25;exitX=-0.01;exitY=0.108;exitDx=0;exitDy=0;exitPerimeter=0;" edge="1" parent="1" source="ifHOgkLfsga2QueAce6r-37">
          <mxGeometry width="50" height="50" relative="1" as="geometry">
            <mxPoint x="1040" y="330" as="sourcePoint" />
            <mxPoint x="940" y="340" as="targetPoint" />
          </mxGeometry>
        </mxCell>
        <mxCell id="ifHOgkLfsga2QueAce6r-44" value="" style="endArrow=none;dashed=1;html=1;dashPattern=1 3;strokeWidth=2;rounded=0;strokeColor=#DDA15E;fontColor=#FEFAE0;fillColor=#BC6C25;" edge="1" parent="1">
          <mxGeometry width="50" height="50" relative="1" as="geometry">
            <mxPoint x="1000" y="340" as="sourcePoint" />
            <mxPoint x="1000" y="130" as="targetPoint" />
          </mxGeometry>
        </mxCell>
        <mxCell id="ifHOgkLfsga2QueAce6r-45" value="(or)" style="text;html=1;align=center;verticalAlign=middle;resizable=0;points=[];autosize=1;strokeColor=none;fillColor=none;fontColor=#FEFAE0;" vertex="1" parent="1">
          <mxGeometry x="940" y="218" width="40" height="30" as="geometry" />
        </mxCell>
      </root>
    </mxGraphModel>
  </diagram>
</mxfile>
